<?xml version="1.0" standalone="no"?>
<!DOCTYPE svg PUBLIC "-//W3C//DTD SVG 20010904//EN"
 "http://www.w3.org/TR/2001/REC-SVG-20010904/DTD/svg10.dtd">
<svg version="1.0" xmlns="http://www.w3.org/2000/svg"
 width="512.000000pt" height="512.000000pt" viewBox="0 0 512.000000 512.000000"
 preserveAspectRatio="xMidYMid meet">

<g transform="translate(0.000000,512.000000) scale(0.100000,-0.100000)"
fill="#000000" stroke="none">
<path d="M1383 3510 l-23 -9 0 -580 c0 -519 2 -579 16 -585 29 -11 179 -7 192
6 9 9 12 83 12 272 l0 259 46 44 c71 68 137 82 189 41 51 -40 55 -65 55 -346
0 -187 3 -261 12 -270 14 -14 175 -17 196 -3 18 11 12 596 -7 653 -17 55 -71
119 -121 148 -39 22 -57 25 -135 25 -97 0 -137 -14 -204 -70 l-31 -27 0 209
c0 114 -5 215 -10 223 -11 18 -152 25 -187 10z"/>
<path d="M3597 3508 c-16 -12 -17 -57 -15 -593 l3 -580 80 -3 c44 -2 90 0 102
3 l23 5 0 580 c0 562 -1 580 -19 590 -28 14 -154 13 -174 -2z"/>
<path d="M3965 3479 c-35 -20 -45 -42 -45 -100 0 -42 5 -63 21 -83 19 -24 26
-26 95 -26 42 0 84 5 94 10 43 23 48 151 8 187 -24 21 -142 30 -173 12z"/>
<path d="M759 3156 c-60 -16 -129 -57 -166 -100 -147 -167 -133 -552 25 -672
117 -90 329 -98 447 -16 l40 28 0 84 c0 100 -10 108 -77 62 -95 -65 -192 -67
-253 -6 -44 44 -59 97 -60 209 0 104 19 166 66 210 26 25 39 30 97 33 62 3 71
1 126 -32 93 -57 106 -50 106 58 0 55 -3 67 -26 90 -56 55 -217 81 -325 52z"/>
<path d="M2393 3150 c-95 -25 -151 -55 -158 -83 -4 -13 -5 -45 -3 -72 4 -70
21 -76 105 -37 132 61 236 66 294 14 26 -23 31 -37 36 -90 l6 -62 -69 0 c-159
-1 -285 -33 -346 -88 -50 -45 -66 -77 -74 -145 -20 -171 107 -287 300 -275 75
5 129 26 184 73 l31 26 3 -38 3 -38 85 0 85 0 0 325 0 326 -26 49 c-14 29 -42
61 -65 77 -83 58 -253 74 -391 38z m277 -534 c0 -63 -1 -65 -42 -100 -103 -88
-233 -60 -233 50 0 79 57 112 193 113 l82 1 0 -64z"/>
<path d="M3329 3150 c-20 -11 -55 -40 -78 -66 l-41 -47 0 45 c0 24 -5 49 -12
56 -16 16 -150 16 -166 0 -17 -17 -17 -779 0 -796 13 -13 163 -17 192 -6 14 5
16 37 16 254 l0 248 39 49 c21 28 56 58 76 67 32 16 43 16 81 6 70 -20 74 -14
74 94 l0 94 -31 11 c-47 16 -109 13 -150 -9z"/>
<path d="M4527 3160 c-100 -25 -175 -87 -222 -183 -40 -82 -55 -150 -55 -247
0 -203 75 -336 219 -391 113 -42 345 -33 449 18 l37 18 3 74 3 73 -38 -5 c-21
-3 -65 -13 -98 -23 -79 -23 -209 -24 -251 -1 -44 23 -81 70 -94 118 -21 78
-34 74 240 76 236 3 246 4 263 24 32 39 16 201 -28 290 -56 110 -146 161 -294
165 -53 2 -113 -1 -134 -6z m154 -150 c61 -17 109 -88 109 -161 l0 -29 -160 0
c-126 0 -160 3 -160 13 0 37 33 116 58 140 44 42 92 54 153 37z"/>
<path d="M3945 3137 c-3 -6 -4 -190 -3 -407 l3 -395 80 -3 c44 -2 90 0 102 3
l23 5 0 399 c0 354 -2 400 -16 405 -31 12 -184 7 -189 -7z"/>
<path d="M169 2561 c-19 -16 -24 -30 -27 -90 -5 -91 8 -126 55 -142 19 -6 60
-9 91 -7 45 4 60 10 80 33 22 26 24 35 20 108 -4 103 -19 117 -123 117 -56 0
-78 -4 -96 -19z"/>
</g>
</svg>
